<?xml version="1.0" standalone="no"?>
<!DOCTYPE svg PUBLIC "-//W3C//DTD SVG 20010904//EN"
 "http://www.w3.org/TR/2001/REC-SVG-20010904/DTD/svg10.dtd">
<svg version="1.0" xmlns="http://www.w3.org/2000/svg"
 width="477.000000pt" height="477.000000pt" viewBox="0 0 477.000000 477.000000"
 preserveAspectRatio="xMidYMid meet">
<metadata>
Created by potrace 1.14, written by Peter Selinger 2001-2017
</metadata>
<g transform="translate(0.000000,477.000000) scale(0.100000,-0.100000)"
fill="#000000" stroke="none">
<path d="M1833 4198 c-5 -7 -18 -31 -29 -53 -11 -22 -52 -101 -91 -175 -38
-74 -105 -202 -148 -285 -43 -82 -99 -190 -125 -240 -26 -49 -79 -151 -117
-225 -74 -142 -161 -309 -248 -475 -29 -55 -85 -163 -125 -240 -40 -77 -101
-194 -135 -260 -35 -66 -90 -172 -123 -235 -32 -63 -87 -169 -122 -235 -114
-218 -187 -358 -255 -490 -37 -71 -89 -170 -115 -220 -164 -314 -190 -365
-190 -384 0 -13 10 -26 23 -32 21 -9 192 74 1458 708 1251 626 1434 721 1437
742 2 13 -1 28 -8 35 -8 8 -204 11 -698 12 -378 1 -691 2 -695 3 -16 2 -24 46
-15 80 5 18 11 41 13 50 7 29 56 244 75 326 86 371 113 488 125 540 7 33 29
128 49 211 19 84 37 163 40 175 2 13 14 65 26 114 12 50 23 99 26 110 2 11 6
29 9 40 20 85 77 335 81 355 3 14 7 33 10 43 5 15 -2 17 -59 17 -40 0 -68 -5
-74 -12z"/>
<path d="M2270 4197 c0 -7 4 -17 9 -22 4 -6 50 -91 101 -190 83 -161 226 -436
390 -750 32 -60 90 -173 130 -250 129 -249 192 -368 240 -460 26 -49 82 -157
125 -240 43 -82 104 -201 136 -262 111 -212 176 -338 244 -468 127 -245 198
-380 250 -480 29 -55 87 -167 130 -250 100 -193 112 -207 149 -169 14 14 16
110 16 911 l0 895 -872 874 -872 874 -88 0 c-66 0 -88 -3 -88 -13z"/>
</g>
</svg>
